<?xml version="1.0" standalone="no"?>
<!DOCTYPE svg PUBLIC "-//W3C//DTD SVG 20010904//EN"
 "http://www.w3.org/TR/2001/REC-SVG-20010904/DTD/svg10.dtd">
<svg version="1.0" xmlns="http://www.w3.org/2000/svg"
 width="388.000000pt" height="194.000000pt" viewBox="0 0 388.000000 194.000000"
 preserveAspectRatio="xMidYMid meet">

<g transform="translate(0.000000,194.000000) scale(0.100000,-0.100000)"
fill="#fff" stroke="none">
<path d="M1430 1805 c0 -69 -48 -123 -118 -134 l-37 -6 1 -210 c1 -177 4 -225
22 -303 69 -300 298 -566 585 -679 62 -24 73 -26 112 -15 118 31 264 122 374
232 90 90 137 158 192 275 71 151 82 209 87 471 l4 231 -43 6 c-57 8 -101 51
-108 109 l-6 43 -532 3 -533 2 0 -25z m1023 -70 c13 -42 55 -84 106 -107 l44
-20 -6 -192 c-4 -130 -11 -210 -22 -251 -78 -289 -254 -503 -511 -621 -40 -19
-86 -34 -101 -34 -37 0 -180 69 -259 125 -80 58 -195 182 -244 264 -98 165
-130 298 -130 547 l0 172 32 6 c39 8 107 77 115 117 l6 29 480 -2 480 -3 10
-30z"/>
<path d="M1576 1625 c-9 -48 -41 -83 -88 -95 l-40 -11 5 -157 c4 -117 10 -172
24 -217 70 -215 210 -383 401 -478 l84 -41 94 48 c198 101 346 289 399 508 9
35 19 125 22 200 l6 137 -36 6 c-44 9 -84 44 -92 82 -4 15 -8 33 -10 39 -3 9
-108 12 -383 12 l-380 0 -6 -33z m649 -96 l215 -71 -1 -126 c0 -103 -4 -140
-22 -196 -24 -75 -44 -94 -49 -49 -5 46 -32 35 -36 -14 -3 -38 -1 -43 18 -43
27 0 24 -11 -27 -88 -51 -78 -157 -179 -234 -224 -35 -21 -68 -38 -74 -38 -7
0 -10 138 -9 415 1 261 -2 415 -8 415 -5 0 -39 -16 -74 -36 l-64 -36 0 -64 0
-64 -35 0 -35 0 0 88 0 87 108 57 c59 31 108 57 109 57 2 1 100 -31 218 -70z
m-463 -221 l158 -53 0 -287 c0 -235 -2 -288 -13 -288 -20 0 -130 73 -184 122
-25 24 -63 65 -85 91 l-38 49 0 169 c0 93 -2 169 -5 169 -2 0 -25 -10 -50 -22
-35 -17 -45 -27 -46 -47 l0 -26 -10 25 c-6 13 -9 40 -7 60 3 31 8 37 58 62 30
15 57 27 60 27 2 1 75 -23 162 -51z"/>
<path d="M2083 1418 c2 -52 3 -53 35 -56 31 -3 32 -2 32 35 0 47 -7 58 -42 67
l-28 6 3 -52z"/>
<path d="M2220 1386 c0 -31 5 -46 16 -50 29 -11 34 -6 34 38 0 31 -5 46 -16
50 -29 11 -34 6 -34 -38z"/>
<path d="M2332 1358 c2 -32 8 -44 21 -46 16 -3 18 2 15 40 -2 32 -8 44 -21 46
-16 3 -18 -2 -15 -40z"/>
<path d="M2080 1251 c0 -45 2 -49 27 -54 38 -7 43 -2 43 48 0 44 -10 55 -51
55 -16 0 -19 -7 -19 -49z"/>
<path d="M2220 1230 c0 -47 2 -50 25 -50 23 0 25 4 25 44 0 31 -5 46 -16 50
-30 11 -34 6 -34 -44z"/>
<path d="M2330 1216 c0 -40 3 -46 21 -46 18 0 20 5 17 42 -2 31 -8 44 -20 46
-15 3 -18 -4 -18 -42z"/>
<path d="M2082 1083 c3 -46 4 -48 33 -48 29 0 30 2 33 48 l3 47 -36 0 -36 0 3
-47z"/>
<path d="M2220 1081 c0 -48 2 -51 25 -51 23 0 25 4 25 45 0 25 -4 45 -9 45 -5
0 -16 3 -25 6 -13 5 -16 -2 -16 -45z"/>
<path d="M1660 1226 c0 -20 2 -36 4 -36 2 0 12 -3 21 -6 14 -6 16 -1 13 32 -2
27 -8 40 -20 42 -15 3 -18 -4 -18 -32z"/>
<path d="M1662 1103 c2 -27 8 -39 21 -41 14 -3 17 4 17 37 0 35 -3 41 -21 41
-17 0 -20 -5 -17 -37z"/>
<path d="M1662 983 c2 -26 8 -38 18 -38 10 0 16 12 18 38 3 32 0 37 -18 37
-18 0 -21 -5 -18 -37z"/>
<path d="M1039 1435 c-9 -20 -13 -70 -13 -145 1 -92 5 -128 23 -179 22 -64 60
-132 47 -86 -9 37 -26 138 -26 162 0 35 14 21 30 -29 67 -223 104 -298 181
-379 33 -35 45 -45 27 -22 -64 78 -85 130 -97 235 -11 99 -28 153 -81 259 -24
48 -50 119 -73 199 -3 10 -9 5 -18 -15z"/>
<path d="M2861 1407 c-8 -29 -35 -98 -62 -154 -57 -121 -76 -182 -84 -283 -8
-83 -19 -109 -78 -190 l-40 -55 37 35 c79 73 141 198 186 373 17 65 26 84 32
72 10 -16 3 -92 -12 -147 -14 -45 -5 -46 18 -1 40 79 59 227 42 326 -7 37 -15
69 -19 72 -4 2 -13 -19 -20 -48z"/>
<path d="M574 1030 c-29 -5 -74 -18 -100 -29 -54 -21 -60 -17 61 -41 33 -7 98
-26 145 -42 75 -27 103 -32 230 -37 144 -6 145 -6 213 -43 37 -21 71 -38 75
-38 15 0 -95 73 -145 97 -53 25 -223 66 -328 79 l-60 7 50 9 c28 5 77 6 110 3
62 -5 65 4 5 24 -47 16 -194 22 -256 11z"/>
<path d="M3143 1030 c-23 -5 -54 -16 -70 -24 -27 -15 -25 -15 42 -10 39 3 88
1 110 -3 39 -9 38 -10 -50 -22 -198 -29 -322 -72 -405 -141 -33 -28 -32 -28
35 8 69 36 73 37 210 43 125 5 151 10 247 42 58 19 128 39 155 43 74 10 81 19
34 38 -79 31 -219 43 -308 26z"/>
<path d="M995 760 c-46 -10 -75 -31 -96 -72 -56 -108 16 -217 135 -205 91 8
134 89 74 140 -32 27 -37 21 -31 -37 5 -46 2 -57 -16 -75 -37 -37 -115 -19
-139 34 -21 45 -15 82 21 120 62 68 122 59 297 -40 166 -95 400 -208 510 -247
87 -30 105 -33 215 -33 111 0 127 3 215 34 120 42 323 139 464 220 198 115
242 128 312 95 40 -19 64 -59 64 -104 0 -42 -15 -67 -50 -85 -40 -21 -76 -19
-101 6 -18 18 -21 30 -17 75 5 59 3 61 -29 39 -24 -17 -35 -62 -21 -88 27 -50
120 -72 179 -42 113 59 78 241 -51 265 -68 12 -123 -7 -273 -97 -268 -162
-436 -250 -541 -282 -92 -28 -210 -28 -302 0 -94 29 -265 116 -467 238 -93 56
-182 108 -199 117 -39 20 -115 32 -153 24z"/>
<path d="M348 680 c-39 -21 -53 -38 -20 -25 72 30 158 22 279 -26 124 -49 99
-23 -42 44 -61 29 -170 33 -217 7z"/>
<path d="M3410 691 c-32 -10 -139 -65 -165 -85 -11 -8 19 1 67 20 130 52 222
62 281 32 30 -15 18 1 -15 22 -34 21 -118 26 -168 11z"/>
<path d="M352 571 c-9 -5 5 -10 40 -13 40 -3 90 -23 208 -80 183 -90 271 -119
360 -120 72 0 109 11 157 48 48 36 40 45 -14 18 -89 -45 -181 -30 -385 62 -64
29 -148 62 -186 73 -71 22 -157 27 -180 12z"/>
<path d="M3405 561 c-33 -9 -109 -39 -170 -66 -233 -102 -329 -118 -412 -71
-51 29 -47 8 5 -28 51 -35 111 -46 185 -35 88 12 156 38 332 124 126 62 162
75 202 75 35 0 44 3 33 10 -23 15 -108 11 -175 -9z"/>
<path d="M280 439 c0 -10 16 -31 36 -49 46 -40 96 -39 127 2 28 38 14 49 -33
26 -34 -17 -44 -18 -75 -8 -19 6 -39 19 -45 28 -9 16 -9 16 -10 1z"/>
<path d="M3637 436 c-3 -8 -24 -20 -46 -27 -35 -10 -44 -9 -75 9 l-36 21 0
-23 c0 -53 74 -74 124 -35 27 21 51 57 43 65 -2 3 -7 -2 -10 -10z"/>
</g>
</svg>
