<?xml version="1.0" standalone="no"?>
<!DOCTYPE svg PUBLIC "-//W3C//DTD SVG 20010904//EN"
 "http://www.w3.org/TR/2001/REC-SVG-20010904/DTD/svg10.dtd">
<svg version="1.0" xmlns="http://www.w3.org/2000/svg"
 width="900.000000pt" height="807.000000pt" viewBox="0 0 900.000000 807.000000"
 preserveAspectRatio="xMidYMid meet">

<g transform="translate(0.000000,807.000000) scale(0.100000,-0.100000)"
fill="#000000" stroke="none">
<path d="M4085 7800 c-1375 -104 -2627 -604 -3660 -1463 -136 -113 -425 -375
-425 -385 0 -4 163 -169 362 -368 l361 -362 121 110 c870 799 1872 1259 3046
1399 225 27 724 37 961 20 635 -47 1244 -197 1817 -450 529 -233 1067 -588
1480 -975 l94 -88 379 378 379 379 -97 94 c-202 194 -538 461 -808 641 -886
591 -1873 943 -2965 1056 -178 18 -866 28 -1045 14z"/>
<path d="M4265 5684 c-22 -2 -92 -9 -155 -14 -808 -73 -1612 -394 -2248 -898
-118 -94 -362 -310 -362 -321 0 -3 169 -175 374 -381 l374 -374 74 70 c142
135 347 289 533 401 797 480 1797 586 2685 285 397 -135 762 -344 1084 -623
l118 -102 380 380 379 379 -109 98 c-221 196 -450 365 -690 508 -135 80 -432
228 -577 286 -353 142 -737 238 -1150 287 -123 15 -619 28 -710 19z"/>
<path d="M4395 3552 c-176 -8 -427 -58 -610 -122 -250 -89 -524 -253 -720
-433 l-60 -56 231 -233 c127 -128 295 -299 374 -380 l143 -147 39 32 c143 116
289 193 443 233 122 32 312 43 437 25 166 -24 375 -114 500 -214 l61 -49 381
381 381 381 -35 30 c-339 296 -727 475 -1155 534 -109 15 -294 23 -410 18z"/>
<path d="M4418 1738 c-266 -26 -506 -213 -599 -468 -44 -123 -56 -242 -36
-362 28 -164 81 -271 196 -390 115 -121 239 -186 409 -215 433 -73 837 274
834 717 -2 278 -146 516 -391 644 -121 63 -265 89 -413 74z"/>
</g>
</svg>
