<?xml version="1.0" standalone="no"?>
<!DOCTYPE svg PUBLIC "-//W3C//DTD SVG 20010904//EN"
 "http://www.w3.org/TR/2001/REC-SVG-20010904/DTD/svg10.dtd">
<svg version="1.0" xmlns="http://www.w3.org/2000/svg"
 width="900.000000pt" height="751.000000pt" viewBox="0 0 900.000000 751.000000"
 preserveAspectRatio="xMidYMid meet">

<g transform="translate(0.000000,751.000000) scale(0.100000,-0.100000)"
fill="#000000" stroke="none">
<path d="M1130 7490 c-363 -7 -389 -8 -455 -30 -294 -95 -552 -362 -626 -648
-17 -66 -21 -128 -29 -427 -10 -420 -3 -2324 9 -2515 16 -242 88 -397 266
-575 114 -114 218 -181 355 -229 84 -29 88 -30 360 -36 912 -21 6139 -21 6995
1 250 6 287 9 345 29 288 97 539 362 616 650 25 97 31 370 31 1560 0 1436 -4
1513 -82 1679 -86 180 -263 362 -447 460 -87 46 -134 58 -293 73 -136 13
-6371 20 -7045 8z m7147 -409 c157 -79 215 -135 297 -292 l48 -90 6 -905 5
-904 -4128 0 -4128 0 6 898 c7 1012 -1 911 87 1061 62 108 136 172 268 234
l67 32 335 5 c184 3 1843 6 3687 8 l3352 3 98 -50z m357 -2603 c-2 -13 -5
-166 -8 -340 l-4 -317 -54 -103 c-72 -139 -139 -206 -275 -276 l-101 -52
-3687 0 -3687 0 -101 52 c-173 88 -274 212 -313 383 -12 52 -17 149 -21 373
l-5 302 4129 0 4130 0 -3 -22z"/>
<path d="M2255 4136 c-5 -3 -311 -7 -680 -10 -451 -3 -682 -9 -708 -16 -55
-16 -97 -84 -97 -157 0 -61 18 -103 63 -150 l31 -33 2517 0 2516 0 41 44 c36
40 62 95 62 136 0 36 -23 93 -51 125 -36 41 -44 42 -349 50 -261 6 -3331 16
-3345 11z"/>
<path d="M6582 4130 c-77 -7 -98 -12 -126 -33 -43 -34 -66 -83 -66 -145 0 -66
13 -99 58 -144 l36 -38 272 0 272 0 32 37 c64 73 78 156 37 228 -30 52 -75 81
-139 89 -89 11 -278 14 -376 6z"/>
<path d="M7704 4130 c-100 -9 -144 -32 -173 -94 -39 -80 -24 -164 42 -233 l31
-33 272 0 271 0 41 44 c35 38 62 95 62 131 0 34 -26 92 -56 125 -28 31 -46 41
-87 49 -68 14 -301 20 -403 11z"/>
<path d="M1442 2625 c-43 -19 -122 -102 -182 -192 -88 -131 -128 -311 -110
-487 20 -190 55 -315 195 -691 111 -297 143 -403 153 -510 15 -169 -8 -256
-105 -390 -64 -87 -81 -139 -64 -195 23 -76 102 -140 173 -140 113 1 272 179
333 372 80 253 58 423 -120 933 -167 476 -195 578 -195 699 0 96 28 173 100
272 48 66 64 96 68 130 10 88 -51 180 -135 203 -50 14 -71 13 -111 -4z"/>
<path d="M2935 2626 c-16 -7 -55 -40 -86 -72 -206 -219 -257 -456 -173 -804
27 -114 81 -276 193 -577 94 -254 124 -378 124 -508 0 -123 -21 -188 -92 -286
-68 -92 -81 -121 -81 -171 1 -161 184 -243 305 -137 54 48 132 159 174 250 56
120 75 224 68 374 -10 191 -52 354 -187 715 -137 366 -160 455 -160 616 0 120
17 168 91 267 92 123 98 191 26 274 -56 64 -137 88 -202 59z"/>
<path d="M4443 2633 c-32 -6 -114 -83 -172 -162 -175 -236 -185 -521 -34 -961
25 -74 66 -187 90 -250 126 -322 157 -440 157 -595 1 -111 -1 -125 -27 -179
-15 -32 -49 -89 -77 -125 -57 -78 -70 -108 -70 -162 0 -48 17 -83 62 -126 107
-102 234 -53 363 141 85 128 113 221 122 402 9 177 -11 276 -114 579 -47 138
-113 333 -148 435 -77 227 -89 280 -88 395 0 112 21 170 98 274 65 87 81 133
65 191 -26 98 -129 162 -227 143z"/>
<path d="M6860 2612 c-75 -37 -89 -68 -100 -224 -5 -68 -10 -257 -10 -420 0
-233 -3 -298 -13 -298 -7 0 -131 68 -277 151 -339 194 -436 241 -505 247 -49
4 -55 2 -93 -33 -71 -64 -92 -172 -47 -241 20 -31 175 -132 490 -318 129 -76
235 -142 235 -146 0 -10 -127 -90 -348 -219 -95 -55 -216 -129 -270 -165 -107
-70 -132 -104 -132 -179 0 -56 51 -143 100 -169 67 -36 132 -12 455 172 290
165 389 220 397 220 5 0 8 -145 8 -322 1 -393 9 -513 39 -562 27 -43 74 -73
129 -82 57 -9 141 32 174 84 23 37 23 41 28 447 3 226 9 416 13 422 10 16 33
5 257 -125 454 -263 526 -292 617 -245 54 28 83 83 83 158 0 110 1 109 -483
395 -217 129 -274 167 -265 176 7 7 137 85 288 174 458 270 464 275 458 392
-5 98 -54 156 -140 165 -68 8 -158 -33 -492 -225 -261 -150 -322 -181 -327
-169 -1 1 -4 189 -8 417 -7 484 -5 474 -101 523 -66 34 -90 34 -160 -1z"/>
</g>
</svg>
