<?xml version="1.0" standalone="no"?>
<!DOCTYPE svg PUBLIC "-//W3C//DTD SVG 20010904//EN"
 "http://www.w3.org/TR/2001/REC-SVG-20010904/DTD/svg10.dtd">
<svg version="1.0" xmlns="http://www.w3.org/2000/svg"
 width="900.000000pt" height="900.000000pt" viewBox="0 0 900.000000 900.000000"
 preserveAspectRatio="xMidYMid meet">

<g transform="translate(0.000000,900.000000) scale(0.100000,-0.100000)"
fill="#000000" stroke="none">
<path d="M3376 8990 c-39 -12 -85 -57 -107 -105 -17 -37 -19 -76 -19 -595 l0
-555 -63 -51 c-403 -327 -1092 -885 -1412 -1143 -220 -178 -417 -340 -439
-360 -107 -100 -83 -251 49 -312 39 -18 143 -19 3115 -19 2953 0 3077 1 3115
19 110 50 150 185 81 275 -21 28 -508 426 -1718 1407 l-228 184 0 555 c0 519
-2 558 -19 595 -22 47 -64 89 -104 104 -97 37 -219 -26 -247 -127 -6 -24 -10
-254 -10 -637 1 -632 2 -647 47 -697 16 -19 519 -429 1308 -1068 l278 -225
-1251 -3 c-689 -1 -1815 -1 -2503 0 l-1252 3 729 590 c852 690 859 696 881
738 17 29 18 83 21 645 2 417 -1 626 -8 653 -28 103 -137 161 -244 129z"/>
<path d="M165 3715 c-5 -2 -22 -6 -37 -9 -41 -9 -95 -61 -113 -109 -14 -38
-15 -210 -13 -1758 l3 -1715 27 -41 c16 -24 44 -49 71 -62 l44 -21 4364 2
c4329 3 4364 3 4397 23 18 11 45 37 60 59 l27 39 3 1716 c3 1905 8 1768 -63
1830 -19 16 -51 35 -72 40 -26 8 -1374 11 -4363 10 -2379 0 -4329 -2 -4335 -4z
m2373 -1857 l2 -1478 -1080 0 -1080 0 0 1480 0 1480 1078 -2 1077 -3 3 -1477z
m3542 1237 l0 -245 -1580 0 -1580 0 0 245 0 245 1580 0 1580 0 0 -245z m2542
-1236 c2 -814 2 -1481 1 -1482 -1 -1 -488 -1 -1082 1 l-1081 2 0 1480 0 1480
1080 0 1080 0 2 -1481z m-2542 -434 l0 -1045 -1580 -2 -1580 -3 0 1048 0 1047
1580 0 1580 0 0 -1045z"/>
<path d="M3721 2049 c-44 -18 -81 -51 -101 -89 -19 -37 -20 -61 -20 -479 0
-286 4 -450 11 -468 14 -38 57 -83 96 -99 27 -12 169 -14 792 -14 512 0 769 3
788 11 38 14 83 57 99 95 10 25 14 127 14 472 1 428 1 441 -19 481 -12 23 -40
53 -63 68 l-42 28 -765 2 c-467 1 -775 -2 -790 -8z m1307 -571 l-3 -203 -525
0 -525 0 -3 203 -2 202 530 0 530 0 -2 -202z"/>
</g>
</svg>
