<?xml version="1.0" standalone="no"?>
<!DOCTYPE svg PUBLIC "-//W3C//DTD SVG 20010904//EN"
 "http://www.w3.org/TR/2001/REC-SVG-20010904/DTD/svg10.dtd">
<svg version="1.0" xmlns="http://www.w3.org/2000/svg"
 width="900.000000pt" height="900.000000pt" viewBox="0 0 900.000000 900.000000"
 preserveAspectRatio="xMidYMid meet">

<g transform="translate(0.000000,900.000000) scale(0.100000,-0.100000)"
fill="#000000" stroke="none">
<path d="M1664 7100 c-193 -50 -361 -187 -448 -364 -66 -135 -68 -153 -73
-547 l-5 -356 40 -6 c80 -13 220 -59 309 -102 160 -78 332 -227 433 -375 60
-88 124 -229 156 -340 27 -94 27 -100 31 -450 4 -305 7 -357 20 -372 15 -17
141 -18 2373 -18 2271 0 2358 1 2373 18 15 17 17 55 17 343 0 280 3 336 19
414 86 407 389 735 782 848 46 14 104 28 127 32 l44 7 -5 352 c-5 390 -8 419
-73 551 -88 181 -254 315 -452 366 -73 19 -139 19 -2836 18 -2665 0 -2763 -1
-2832 -19z"/>
<path d="M826 5524 c-158 -34 -277 -97 -394 -208 -119 -113 -189 -230 -234
-391 -21 -77 -22 -97 -23 -470 0 -405 7 -502 46 -675 111 -484 392 -899 806
-1193 103 -72 271 -162 413 -220 33 -13 37 -20 59 -96 29 -100 78 -178 159
-253 102 -94 215 -138 357 -138 150 0 262 47 371 155 45 44 83 93 103 132 l31
63 1980 0 1979 0 37 -70 c44 -85 147 -186 227 -224 176 -83 382 -72 532 28
111 74 196 193 229 320 19 72 17 70 73 91 93 35 268 128 370 196 431 289 731
733 837 1237 37 176 49 365 44 722 -4 284 -7 323 -27 395 -78 286 -282 496
-571 587 -65 20 -95 23 -225 23 -143 -1 -154 -2 -245 -33 -223 -77 -389 -223
-486 -427 -73 -153 -76 -174 -83 -585 l-6 -365 -26 -56 c-34 -72 -96 -134
-168 -168 l-56 -26 -2435 0 -2435 0 -55 26 c-72 34 -136 97 -168 167 l-27 57
-6 365 c-7 419 -10 434 -91 600 -45 92 -64 117 -147 201 -138 138 -251 200
-429 235 -93 18 -226 17 -316 -2z"/>
</g>
</svg>
