<?xml version="1.0" standalone="no"?>
<!DOCTYPE svg PUBLIC "-//W3C//DTD SVG 20010904//EN"
 "http://www.w3.org/TR/2001/REC-SVG-20010904/DTD/svg10.dtd">
<svg version="1.0" xmlns="http://www.w3.org/2000/svg"
 width="900.000000pt" height="900.000000pt" viewBox="0 0 900.000000 900.000000"
 preserveAspectRatio="xMidYMid meet">

<g transform="translate(0.000000,900.000000) scale(0.100000,-0.100000)"
fill="#000000" stroke="none">
<path d="M1150 8704 c-152 -41 -269 -171 -300 -333 -14 -75 -14 -7387 0 -7462
33 -171 159 -302 328 -338 39 -8 939 -11 3325 -11 3560 0 3322 -4 3435 53 101
50 189 174 212 298 7 36 9 1290 8 3764 l-3 3710 -23 60 c-44 115 -126 200
-242 247 l-55 23 -3315 2 c-2895 2 -3322 0 -3370 -13z m6663 -288 c45 -31 57
-65 57 -165 l0 -90 -312 -3 c-302 -3 -315 -4 -359 -26 -60 -29 -116 -86 -143
-142 -20 -43 -21 -59 -21 -400 0 -347 1 -356 22 -396 34 -63 66 -97 125 -129
l53 -30 318 -3 317 -3 0 -3045 c0 -3362 6 -3084 -63 -3121 -30 -17 -195 -18
-3307 -18 -3112 0 -3277 1 -3307 18 -18 9 -39 31 -48 47 -13 26 -15 442 -15
3733 l0 3704 23 34 c13 19 38 39 57 46 27 9 788 11 3305 10 3193 -2 3271 -2
3298 -21z m57 -826 l0 -280 -280 0 -280 0 0 280 0 280 280 0 280 0 0 -280z"/>
<path d="M1627 8150 c-58 -15 -111 -45 -145 -85 -57 -65 -67 -92 -67 -190 0
-80 3 -95 27 -135 56 -96 140 -144 248 -143 111 0 207 62 254 163 28 62 28
168 0 230 -55 118 -196 189 -317 160z"/>
<path d="M2458 8146 c-176 -49 -259 -246 -172 -406 50 -92 136 -143 245 -144
195 -1 327 188 263 376 -44 130 -202 212 -336 174z"/>
<path d="M6285 7869 c-63 -20 -95 -65 -95 -132 0 -65 22 -104 73 -128 36 -16
67 -19 206 -19 145 0 170 2 206 20 95 46 100 187 8 247 -23 15 -52 18 -198 20
-93 1 -183 -2 -200 -8z"/>
<path d="M1484 7300 c-11 -4 -33 -23 -48 -41 -25 -30 -28 -39 -24 -95 3 -44
10 -69 23 -85 42 -46 65 -49 397 -49 284 0 316 2 347 18 90 49 95 189 8 242
-30 19 -52 20 -357 19 -179 0 -334 -4 -346 -9z"/>
<path d="M2592 7290 c-61 -37 -79 -139 -37 -204 39 -59 -92 -56 2093 -56 1915
0 1999 1 2031 18 90 49 95 189 8 242 -31 20 -66 20 -2047 20 -2003 0 -2015 0
-2048 -20z"/>
<path d="M4165 6743 c-410 -37 -792 -169 -1125 -391 -571 -379 -939 -957
-1047 -1643 -13 -86 -18 -172 -18 -354 0 -250 10 -347 57 -545 205 -867 885
-1556 1748 -1770 216 -54 314 -65 570 -65 263 0 368 12 594 69 418 106 823
339 1119 644 75 78 77 81 77 131 0 42 -5 56 -30 85 -17 18 -49 41 -72 51 -72
28 -98 17 -218 -100 -661 -637 -1623 -784 -2432 -373 -222 112 -384 233 -568
425 -313 325 -502 722 -566 1187 -22 164 -15 474 15 631 82 433 268 797 560
1098 179 184 360 316 586 427 720 353 1566 271 2210 -213 285 -215 543 -553
674 -883 105 -266 140 -447 150 -771 7 -258 8 -261 82 -311 57 -40 131 -19
183 52 18 23 22 45 24 141 5 151 -13 393 -38 534 -172 953 -904 1704 -1852
1901 -201 42 -492 60 -683 43z"/>
<path d="M4182 6179 c-512 -49 -1017 -341 -1314 -760 -154 -217 -160 -255 -56
-368 124 -135 206 -280 250 -441 31 -114 33 -375 4 -485 -42 -155 -120 -300
-229 -422 -112 -127 -119 -160 -54 -273 139 -246 411 -510 674 -659 523 -294
1144 -319 1678 -66 214 100 378 218 541 387 676 700 683 1815 14 2521 -392
414 -943 621 -1508 566z m398 -290 c533 -73 1003 -438 1210 -940 37 -89 84
-264 101 -374 19 -124 14 -350 -9 -485 -115 -647 -611 -1138 -1267 -1256 -147
-26 -385 -24 -534 5 -269 52 -495 156 -696 321 -92 75 -217 207 -282 297 l-52
71 38 44 c133 153 239 385 271 593 16 102 16 287 0 390 -27 175 -118 392 -223
529 -90 119 -88 104 -32 182 67 95 252 276 358 351 328 231 720 326 1117 272z"/>
<path d="M6400 3688 c-49 -25 -48 -24 -130 -202 -64 -140 -68 -190 -16 -242
32 -32 38 -34 99 -34 108 0 145 38 214 222 38 101 42 159 13 205 -41 68 -109
87 -180 51z"/>
<path d="M1621 1673 c-65 -33 -71 -55 -71 -266 0 -210 6 -234 63 -264 45 -23
120 -22 155 3 54 40 62 72 62 259 0 186 -8 219 -61 258 -37 27 -106 32 -148
10z"/>
<path d="M2345 1683 c-34 -9 -63 -33 -79 -68 -13 -26 -16 -69 -16 -210 0 -181
3 -199 43 -243 47 -51 146 -47 201 7 l31 31 3 195 c4 224 -1 244 -71 276 -41
18 -73 22 -112 12z"/>
<path d="M3031 1673 c-19 -10 -44 -31 -55 -46 -20 -27 -21 -42 -21 -221 0
-166 2 -195 18 -219 53 -82 200 -79 243 5 25 49 26 379 1 425 -35 65 -121 91
-186 56z"/>
<path d="M3733 1676 c-18 -8 -42 -30 -53 -48 -18 -30 -20 -50 -20 -221 0 -210
6 -234 63 -264 45 -23 120 -22 155 3 54 40 62 72 62 259 0 186 -8 219 -61 258
-35 25 -105 31 -146 13z"/>
<path d="M4453 1683 c-33 -6 -81 -59 -88 -96 -4 -18 -5 -112 -3 -209 l3 -177
30 -31 c69 -72 186 -56 231 32 20 39 20 365 -1 414 -22 53 -95 82 -172 67z"/>
<path d="M5141 1672 c-71 -35 -76 -52 -79 -255 -2 -159 0 -186 15 -217 35 -67
129 -93 200 -56 57 29 63 53 63 263 0 171 -2 191 -20 221 -35 58 -115 77 -179
44z"/>
<path d="M5845 1677 c-71 -33 -82 -73 -80 -292 1 -131 4 -166 18 -192 45 -84
182 -89 241 -10 19 26 21 44 24 210 3 200 -4 229 -59 270 -34 25 -105 31 -144
14z"/>
<path d="M6565 1683 c-35 -9 -68 -37 -81 -70 -21 -48 -20 -373 1 -417 21 -44
69 -70 127 -69 55 1 91 21 118 66 18 29 20 51 20 210 0 210 -8 238 -74 268
-40 18 -72 22 -111 12z"/>
<path d="M7251 1673 c-19 -10 -44 -31 -55 -46 -20 -26 -21 -42 -21 -222 0
-181 1 -195 21 -222 41 -55 126 -73 191 -39 57 29 63 53 63 263 0 169 -2 191
-20 220 -23 39 -46 52 -102 59 -31 4 -53 0 -77 -13z"/>
</g>
</svg>
