<?xml version="1.0" standalone="no"?>
<!DOCTYPE svg PUBLIC "-//W3C//DTD SVG 20010904//EN"
 "http://www.w3.org/TR/2001/REC-SVG-20010904/DTD/svg10.dtd">
<svg version="1.0" xmlns="http://www.w3.org/2000/svg"
 width="900.000000pt" height="866.000000pt" viewBox="0 0 900.000000 866.000000"
 preserveAspectRatio="xMidYMid meet">

<g transform="translate(0.000000,866.000000) scale(0.100000,-0.100000)"
fill="#000000" stroke="none">
<path d="M5630 7515 c-619 -619 -1128 -1124 -1132 -1123 -4 2 -245 240 -535
529 -571 568 -751 743 -815 789 -122 89 -297 -35 -257 -182 14 -53 19 -58 653
-695 281 -282 508 -514 506 -516 -3 -3 -619 -8 -1370 -12 -1603 -8 -1836 -13
-1929 -45 -269 -91 -522 -319 -646 -583 -68 -143 -86 -230 -94 -452 -10 -257
-10 -3691 0 -4060 7 -260 9 -286 33 -368 98 -329 379 -620 711 -733 74 -25 97
-28 290 -34 374 -11 1197 -15 3455 -15 2323 0 3093 3 3450 15 196 6 222 9 293
34 340 116 630 420 718 751 32 121 36 401 36 2420 0 2008 -2 2146 -42 2280
-55 189 -142 335 -284 475 -131 130 -270 219 -422 270 -93 32 -319 37 -1924
45 -753 4 -1372 9 -1374 11 -2 2 452 462 1010 1022 636 637 1021 1031 1032
1054 25 52 22 127 -6 169 -32 49 -97 79 -172 79 l-60 0 -1125 -1125z m1986
-1576 c457 -7 462 -8 534 -33 99 -34 171 -79 257 -160 139 -131 208 -279 224
-485 12 -151 19 -2948 9 -3691 -7 -538 -8 -580 -28 -652 -69 -254 -269 -455
-518 -518 -70 -18 -121 -21 -514 -25 -936 -10 -3403 -13 -4955 -5 -1791 9
-1695 5 -1833 70 -134 63 -234 151 -317 279 -63 97 -95 199 -106 340 -11 149
-19 2927 -10 3681 8 612 11 648 62 767 66 155 220 310 372 377 101 44 136 47
644 55 642 10 5587 10 6179 0z"/>
<path d="M2865 5764 c-563 -12 -1011 -58 -1266 -129 -305 -85 -546 -238 -698
-443 -129 -175 -236 -464 -285 -772 -54 -345 -67 -581 -67 -1245 0 -658 11
-878 62 -1225 47 -324 143 -604 270 -792 130 -191 331 -338 583 -427 277 -98
544 -138 1066 -161 255 -11 2182 -4 2495 9 545 23 949 126 1203 308 237 169
391 408 477 740 95 364 128 767 129 1548 0 1032 -59 1459 -259 1869 -224 460
-659 650 -1610 707 -167 10 -1783 20 -2100 13z m2220 -383 c473 -44 720 -103
908 -214 83 -50 189 -154 235 -230 115 -191 187 -487 224 -912 18 -209 18
-1478 0 -1700 -42 -519 -127 -815 -292 -1021 -90 -113 -253 -207 -465 -268
-341 -98 -728 -120 -2035 -120 -867 0 -1115 6 -1475 40 -259 24 -472 66 -625
123 -136 51 -281 154 -357 253 -164 213 -235 498 -285 1138 -16 212 -16 1156
1 1405 43 652 147 998 356 1194 190 178 495 268 1050 311 77 6 158 12 180 14
104 9 2469 -3 2580 -13z"/>
<path d="M7645 4316 c-62 -18 -96 -40 -153 -100 -75 -79 -106 -151 -106 -246
0 -63 4 -85 30 -140 37 -79 95 -140 166 -176 74 -39 199 -45 278 -15 75 28
158 104 200 183 31 57 35 71 35 144 0 73 -3 87 -38 156 -53 109 -119 162 -242
194 -59 16 -115 16 -170 0z"/>
<path d="M7673 2700 c-115 -24 -203 -96 -256 -208 -27 -58 -32 -78 -32 -147 0
-71 4 -88 33 -147 38 -77 92 -130 171 -167 48 -22 69 -26 151 -26 82 0 103 4
152 27 105 49 175 141 200 262 31 145 -73 331 -214 384 -66 25 -149 33 -205
22z"/>
</g>
</svg>
