<?xml version="1.0" standalone="no"?>
<!DOCTYPE svg PUBLIC "-//W3C//DTD SVG 20010904//EN"
 "http://www.w3.org/TR/2001/REC-SVG-20010904/DTD/svg10.dtd">
<svg version="1.0" xmlns="http://www.w3.org/2000/svg"
 width="840.000000pt" height="593.000000pt" viewBox="0 0 840.000000 593.000000"
 preserveAspectRatio="xMidYMid meet">

<g transform="translate(0.000000,593.000000) scale(0.100000,-0.100000)"
fill="#000000" stroke="none">
<path d="M5175 5514 c-330 -50 -582 -174 -786 -387 l-75 -79 -65 24 -64 23
-1005 0 c-1129 0 -1059 4 -1178 -75 -96 -64 -160 -164 -182 -282 -7 -36 -9
-674 -8 -1859 l3 -1804 22 -55 c46 -113 146 -211 254 -251 l56 -21 6 -78 c13
-189 119 -277 321 -268 102 5 149 23 203 80 49 51 73 112 73 191 l0 67 424 0
423 0 7 -77 c9 -114 54 -190 141 -236 34 -19 56 -22 155 -22 128 0 166 13 228
76 49 50 66 95 70 186 l4 81 58 21 c128 47 226 151 265 283 13 45 15 184 15
1105 0 579 2 1053 5 1053 2 0 35 -20 72 -44 315 -203 694 -257 1058 -151 381
111 711 425 839 799 96 279 98 553 5 831 -69 207 -174 372 -334 523 -177 168
-388 277 -630 327 -78 16 -319 28 -380 19z m311 -179 c555 -90 956 -581 931
-1140 -23 -492 -350 -894 -837 -1027 -75 -20 -107 -23 -270 -23 -172 0 -192 2
-285 28 -319 90 -578 307 -715 600 -192 410 -114 898 198 1228 163 174 371
286 607 329 124 23 252 24 371 5z m-1282 -426 c4 -4 -13 -46 -38 -95 -82 -164
-124 -325 -133 -509 -9 -206 27 -405 103 -574 19 -41 34 -78 34 -82 0 -5 -484
-8 -1092 -7 l-1093 3 0 545 c0 543 0 545 22 586 29 55 78 103 128 125 38 18
89 19 1052 16 556 -1 1014 -5 1017 -8z m124 -1488 l42 -50 0 -1128 0 -1128
-24 -50 c-27 -59 -88 -117 -142 -136 -32 -12 -217 -14 -1034 -14 -897 0 -999
2 -1031 16 -54 25 -105 74 -131 127 l-23 47 -3 1183 -2 1182 1152 0 1153 0 43
-49z m-1750 -2741 c-6 -83 -26 -103 -110 -108 -35 -2 -76 1 -91 7 -33 13 -57
63 -57 121 l0 40 131 0 131 0 -4 -60z m1452 6 c0 -80 -27 -108 -109 -114 -78
-6 -119 11 -137 54 -15 35 -19 96 -7 107 3 4 62 7 130 7 l123 0 0 -54z"/>
<path d="M5255 5155 c-21 -20 -25 -34 -25 -85 0 -33 -4 -60 -10 -60 -5 0 -37
18 -71 40 -70 45 -104 50 -143 19 -26 -21 -35 -65 -20 -104 4 -9 54 -48 113
-87 58 -39 112 -77 119 -86 13 -18 18 -332 4 -332 -4 0 -66 59 -137 131 -72
72 -143 137 -158 145 -57 30 -121 -8 -121 -72 0 -31 14 -49 149 -184 l150
-150 -175 0 -175 0 -69 106 c-101 153 -138 174 -198 114 -40 -40 -35 -77 22
-160 l41 -60 -44 0 c-64 0 -105 -18 -123 -52 -18 -36 -12 -70 18 -98 17 -16
35 -20 85 -20 35 0 63 -2 63 -5 0 -3 -20 -36 -45 -73 -29 -43 -45 -78 -45 -98
0 -59 69 -101 119 -73 14 8 62 67 105 132 l80 117 163 0 c90 0 163 -3 163 -7
0 -4 -65 -73 -145 -154 -131 -132 -145 -150 -145 -181 0 -46 40 -88 83 -88 26
0 53 23 182 150 83 83 154 147 158 144 9 -10 9 -316 -1 -330 -4 -6 -55 -43
-114 -82 -58 -39 -114 -82 -122 -94 -24 -33 -20 -72 10 -102 40 -39 77 -34
156 19 37 25 70 45 73 45 3 0 5 -28 5 -62 1 -69 12 -92 55 -108 35 -13 80 2
97 34 6 11 14 47 17 79 l6 57 67 -45 c79 -52 116 -58 153 -20 30 29 32 73 6
107 -11 13 -67 56 -125 94 l-106 69 0 175 0 174 153 -152 c130 -129 158 -152
184 -152 43 0 83 42 83 88 0 31 -14 49 -145 181 -80 81 -145 150 -145 154 0 4
74 7 165 7 l165 0 80 -120 c44 -65 89 -124 99 -130 33 -17 71 -11 96 15 38 37
33 79 -20 161 l-44 69 52 3 c79 4 95 10 112 42 21 40 19 64 -8 95 -19 23 -33
28 -89 32 l-67 6 45 66 c53 79 56 111 15 152 -57 57 -92 37 -187 -106 l-77
-115 -176 0 -175 0 153 155 c148 148 153 155 147 187 -7 37 -47 78 -77 78 -36
0 -62 -20 -201 -158 l-138 -137 0 171 0 171 115 77 c143 95 163 130 106 187
-41 41 -73 38 -152 -15 l-66 -45 -6 67 c-4 56 -9 70 -32 89 -35 30 -79 30
-110 -2z"/>
<path d="M2205 4486 c-52 -22 -55 -43 -55 -327 0 -289 6 -322 57 -336 39 -10
64 -5 91 20 22 20 22 23 22 312 0 290 0 292 -22 312 -32 29 -58 34 -93 19z"/>
<path d="M2179 3274 l-24 -26 0 -290 0 -290 28 -24 c36 -31 77 -31 111 1 l26
24 0 291 0 291 -25 24 c-33 34 -83 34 -116 -1z"/>
</g>
</svg>
